<svg xmlns="http://www.w3.org/2000/svg" width="185.773" height="212" viewBox="0 0 185.773 212"><g transform="translate(-129.146 821.83)"><path d="M273.228-821.358a6.734,6.734,0,0,0-3.76,3.405l-.426,1.029-28.45.071-28.415.106-.106,7.521L212-801.67h2.483v-12.771h54.2l.39,1.171a7.556,7.556,0,0,0,3.689,3.867l.958.355v7.379h2.483v-7.059l1.561-.674a6.851,6.851,0,0,0,3.583-4.079l.248-.958h54.914v12.771H339l-.071-7.556-.106-7.521-28.628-.106-28.663-.071-.709-1.383a6.021,6.021,0,0,0-4.08-3.193A4.067,4.067,0,0,0,273.228-821.358Zm4.789,3.334a3.037,3.037,0,0,1,1.029,2.59,3.591,3.591,0,0,1-2.341,3.689,3.648,3.648,0,0,1-4.292-.993,2.96,2.96,0,0,1-.958-2.661,2.857,2.857,0,0,1,1.171-2.661A3.91,3.91,0,0,1,278.017-818.024Z" transform="translate(-53.462)"/><path d="M154.882-748.314a30.991,30.991,0,0,0-22.774,19.085,29.931,29.931,0,0,0,15.254,37.354A25.549,25.549,0,0,0,158.749-689a29.947,29.947,0,0,0,26.677-13.764,30.993,30.993,0,0,0,3.618-24.087,31.97,31.97,0,0,0-10-15.218A30.916,30.916,0,0,0,154.882-748.314ZM166.7-745.05a30.982,30.982,0,0,1,5.676,2.164c2.873,1.383,3.867,2.128,6.776,5.037,2.944,2.909,3.654,3.831,5.073,6.74,2.377,4.9,2.873,7.095,2.838,12.593-.035,4.186-.142,4.931-1.135,7.982a27.075,27.075,0,0,1-38.56,15.5,31.42,31.42,0,0,1-10.642-10.287,27.757,27.757,0,0,1,.213-27.315,31.5,31.5,0,0,1,9.436-9.436A27.638,27.638,0,0,1,166.7-745.05Z" transform="translate(-0.708 -47.148)"/><path d="M331.947-747.372a34.536,34.536,0,0,0-10.713,3.8,36.469,36.469,0,0,0-11,11.1,30,30,0,0,0,7.059,37.957,40.845,40.845,0,0,0,11.458,5.889,37.47,37.47,0,0,0,12.132.5c10.252-1.632,19.511-9.01,23.129-18.447a27.988,27.988,0,0,0,2.057-12.558,25.33,25.33,0,0,0-3.086-11.742,29.507,29.507,0,0,0-25.541-16.673A37.114,37.114,0,0,0,331.947-747.372Zm11.813,3.76a24.934,24.934,0,0,1,12.345,7.7,26.814,26.814,0,0,1,5.463,27.6,26.866,26.866,0,0,1-17.382,16.5c-2.625.851-3.618.958-7.627.993-5.463.035-7.733-.461-12.416-2.767a25.831,25.831,0,0,1-12.026-12.1,23.836,23.836,0,0,1-2.8-12.239,26.053,26.053,0,0,1,3.405-13.125,31.2,31.2,0,0,1,9.72-9.9A27.756,27.756,0,0,1,343.76-743.612Z" transform="translate(-114.345 -47.913)"/><path d="M510.388-747.573a31.576,31.576,0,0,0-19.582,10.749,28.646,28.646,0,0,0-5.357,9.72,30.18,30.18,0,0,0,.709,20.788,30.679,30.679,0,0,0,22.065,17.985,36.444,36.444,0,0,0,13.161-.39c5.321-1.454,11.919-5.569,15.112-9.472a29.25,29.25,0,0,0,7.166-19.794A29.962,29.962,0,0,0,520.676-746.9,42.648,42.648,0,0,0,510.388-747.573Zm9.046,3.406a28.992,28.992,0,0,1,12.984,6.74,28.337,28.337,0,0,1,7.769,13.87,31.1,31.1,0,0,1-.674,14.261,27.337,27.337,0,0,1-18.553,17.631,32.85,32.85,0,0,1-13.906.142,27.078,27.078,0,0,1-19.688-31.714,24.941,24.941,0,0,1,3.8-9.223C497.263-741.9,507.905-746.331,519.434-744.167Z" transform="translate(-228.933 -47.854)"/><path d="M152.685-570.344A30.712,30.712,0,0,0,135.267-559.1a37.444,37.444,0,0,0-5.286,11,29.578,29.578,0,0,0,7.414,27.457,29.718,29.718,0,0,0,33.168,7.237,29.992,29.992,0,0,0,16.531-38.17,30.4,30.4,0,0,0-21.887-18.766A38.042,38.042,0,0,0,152.685-570.344Zm11.813,2.838a25.16,25.16,0,0,1,13.551,7.237c14.4,14.119,8.727,38.383-10.465,44.91a30.394,30.394,0,0,1-14.864.532,27.123,27.123,0,0,1-19.759-19.4,30.607,30.607,0,0,1-.035-13.658,27.675,27.675,0,0,1,13.2-16.921A27.456,27.456,0,0,1,164.5-567.506Z" transform="translate(0 -161.939)"/><path d="M510.041-569.349a30.45,30.45,0,0,0-24.371,20.575c-1.1,3.228-1.135,3.583-1.171,8.869,0,6.172.426,8.3,2.448,12.664a30.465,30.465,0,0,0,21.462,16.992,34.469,34.469,0,0,0,13.87-.568,30,30,0,0,0,16.176-46.258A30.105,30.105,0,0,0,515.4-569.491,31.773,31.773,0,0,0,510.041-569.349Zm11.032,3.583a27.221,27.221,0,0,1,19.475,20.291,32.177,32.177,0,0,1-.638,14.261,27.751,27.751,0,0,1-13.48,15.609A24.492,24.492,0,0,1,515.54-512.7,27.333,27.333,0,0,1,500-516.528a36.6,36.6,0,0,1-8.9-8.9c-9.33-15.892-1.313-35.722,16.318-40.37A32.234,32.234,0,0,1,521.074-565.766Z" transform="translate(-229.295 -162.792)"/><path d="M330.223-568.379a30.433,30.433,0,0,0-23.768,25.009,30.565,30.565,0,0,0,4.328,20.256,36.927,36.927,0,0,0,8.833,9.046,33.063,33.063,0,0,0,9.791,4.292,40.142,40.142,0,0,0,12.7.142,30.272,30.272,0,0,0,21.036-16.708,27.482,27.482,0,0,0,2.8-11.352,29.885,29.885,0,0,0-24.3-30.721A35.256,35.256,0,0,0,330.223-568.379Zm13.3,3.335a27.1,27.1,0,0,1,16.389,38.88,32.92,32.92,0,0,1-10.181,10.571,28.652,28.652,0,0,1-22.278,2.2,25.682,25.682,0,0,1-10.536-6.7,25.336,25.336,0,0,1-7.733-18.659A24.337,24.337,0,0,1,311.954-551a27.266,27.266,0,0,1,19.617-14.722A36.875,36.875,0,0,1,343.526-565.045Z" transform="translate(-114.217 -163.229)"/><path d="M152.685-393.344A30.712,30.712,0,0,0,135.267-382.1a37.444,37.444,0,0,0-5.286,11,29.578,29.578,0,0,0,7.414,27.457,29.347,29.347,0,0,0,21.675,9.472,29.918,29.918,0,0,0,28.025-40.4,30.4,30.4,0,0,0-21.887-18.766A38.039,38.039,0,0,0,152.685-393.344Zm11.813,2.838a25.16,25.16,0,0,1,13.551,7.237c14.4,14.119,8.8,38.206-10.465,44.946-2.625.922-3.228.993-8.336.993-6.243,0-7.911-.39-12.416-2.7a26.79,26.79,0,0,1-13.87-17.2,30.607,30.607,0,0,1-.035-13.658,27.675,27.675,0,0,1,13.2-16.921A27.456,27.456,0,0,1,164.5-390.506Z" transform="translate(0 -276.15)"/><path d="M331.633-393.364a30.338,30.338,0,0,0-24.9,22.987c-.993,4.15-.816,11.387.39,15.147a30.944,30.944,0,0,0,17.489,19.262,29.992,29.992,0,0,0,36.219-11.245,28.868,28.868,0,0,0,4.9-16.708,29.705,29.705,0,0,0-12.948-24.442,37.779,37.779,0,0,0-9.862-4.434A37.6,37.6,0,0,0,331.633-393.364Zm10.536,3.405c7.343,1.561,14.651,7.414,18.021,14.509a27.814,27.814,0,0,1-2.093,27.28A28.182,28.182,0,0,1,343.055-337.6a32.85,32.85,0,0,1-13.906.142,27.233,27.233,0,0,1-19.795-20.894,35.214,35.214,0,0,1,.39-12.487,27.83,27.83,0,0,1,13.338-16.637A27.5,27.5,0,0,1,342.168-389.958Z" transform="translate(-114.172 -276.343)"/><path d="M510.184-392.349a31.974,31.974,0,0,0-13.551,5.5,33.137,33.137,0,0,0-10.394,13.693c-4.328,10.855-1.064,24.548,7.662,32.459a29.393,29.393,0,0,0,21.71,7.84,28.229,28.229,0,0,0,19.724-8.727,28.711,28.711,0,0,0,8.727-22.7,27.315,27.315,0,0,0-3.3-12.1,29.8,29.8,0,0,0-25.116-16.105A33.344,33.344,0,0,0,510.184-392.349Zm12.522,4.009a24.482,24.482,0,0,1,10.642,6.811,24.886,24.886,0,0,1,6.988,11.742c1.029,3.689,1.135,10.5.142,13.977a27.485,27.485,0,0,1-14.225,17.382c-4.434,2.164-6.7,2.661-12.239,2.625-4.4,0-5.037-.106-7.982-1.1a26.814,26.814,0,0,1-12.629-8.549,32.813,32.813,0,0,1-5.286-10.181,27.212,27.212,0,0,1,6.882-25.9,26.87,26.87,0,0,1,12.38-7.308C511.248-389.866,518.8-389.618,522.706-388.341Z" transform="translate(-229.189 -277.003)"/></g></svg>