<svg xmlns="http://www.w3.org/2000/svg" width="15.813" height="19.812" viewBox="0 0 15.813 19.812"><g transform="translate(-10 99.824)"><path d="M18.119-99.439a1.078,1.078,0,0,0-.461,1.2l.08.782H14.41v1.123c0,.942.06,1.143.4,1.223.361.1.4.281.4,1.644v1.524l-1.724,2.606C11.163-85.866,10-83.641,10-82.619a2.774,2.774,0,0,0,1.965,2.406,60.638,60.638,0,0,0,6.134.2c5.092,0,5.453-.02,6.275-.421,2.325-1.123,1.9-3.087-1.784-8.56L20.725-91.74l-.06-1.624c-.08-1.524-.04-1.644.341-1.744.361-.08.421-.261.421-1.223,0-.982-.04-1.123-.4-1.123-.341,0-.4-.14-.4-.782A1.493,1.493,0,0,0,18.119-99.439Zm1.664,1.123c.04.5-.02.662-.361.762a.771.771,0,0,1-1-.8c0-.5.281-.7.9-.642C19.623-98.977,19.743-98.8,19.783-98.316Zm.842,2.065c0,.381-.14.4-2.706.4s-2.706-.02-2.706-.4.14-.4,2.706-.4S20.625-96.632,20.625-96.251Zm-.6,2.967c0,1.744.02,1.8.8,3.027a8.028,8.028,0,0,1,.8,1.423,15.241,15.241,0,0,1-3.709.2,20.286,20.286,0,0,1-3.709-.16,13.734,13.734,0,0,1,.9-1.524,3.855,3.855,0,0,0,.9-3.067v-1.664h4.009Zm3.208,6.7c1.9,2.947,2.225,4.43,1.143,5.252-.541.4-.842.421-5.914.481-2.947.04-5.653,0-6.034-.06A1.949,1.949,0,0,1,10.8-82.559a10.769,10.769,0,0,1,1.844-4.03l.8-1.243h8.981Z"/><path d="M42.371-71.378a1.534,1.534,0,0,0,.381,2.466c1.243.642,2.305-.221,2.205-1.764C44.9-71.739,43.153-72.2,42.371-71.378Zm1.764.722c.3.561-.421,1.423-.942,1.1a.971.971,0,0,1-.381-1.2C42.973-71.178,43.875-71.1,44.136-70.656Z" transform="translate(-25.515 -22.407)"/><path d="M32.8-36.16a1.537,1.537,0,0,0,.7,2.907,1.433,1.433,0,0,0,1.544-1.463A1.513,1.513,0,0,0,32.8-36.16Zm1.343,1.083a.685.685,0,0,1-.782.982c-.5-.06-.722-.541-.521-1.083C33-35.579,33.9-35.519,34.142-35.078Z" transform="translate(-17.546 -50.769)"/><path d="M53.351-28.313a2.233,2.233,0,0,0-.942.581,1.849,1.849,0,0,0,.06,2.686,1.756,1.756,0,0,0,2.646,0A1.926,1.926,0,0,0,53.351-28.313Zm1.3,1.1a1.425,1.425,0,0,1,.241.862c0,.842-.682,1.263-1.564.962-.461-.16-.541-.3-.541-.982,0-.642.1-.842.481-1.022A1.2,1.2,0,0,1,54.654-27.21Z" transform="translate(-33.468 -57.153)"/></g></svg>