<svg xmlns="http://www.w3.org/2000/svg" width="14.722" height="17.81" viewBox="0 0 14.722 17.81"><g transform="translate(-12 95.982)"><path d="M12.136-95.85a13.4,13.4,0,0,0-.136,2.6c0,2.479.136,2.964.659,2.5a6.131,6.131,0,0,1,2.266-.155l2.015.058L17-89.244a3.963,3.963,0,0,1-.174,1.9c-.174.213-.174.349-.019.5a5.012,5.012,0,0,1,.232,2.092c0,2.4.349,3.467,1.55,4.649,1.24,1.259,2.208,1.55,5.036,1.55a7.211,7.211,0,0,1,2.46.213c.5.5.639-.077.639-2.538,0-2.5-.136-2.983-.659-2.518a6.131,6.131,0,0,1-2.266.155L21.782-83.3l-.058-1.608a3.963,3.963,0,0,1,.174-1.9c.174-.213.174-.349.019-.5a5.012,5.012,0,0,1-.232-2.092c0-2.4-.349-3.467-1.55-4.649-1.24-1.259-2.208-1.55-5.056-1.55a7.727,7.727,0,0,1-2.4-.194A.312.312,0,0,0,12.136-95.85Zm5.772,1.24A5.178,5.178,0,0,1,20.7-91.821a13.344,13.344,0,0,1,.213,2.557v1.8h-3.1v-1.743c0-2.441-.1-2.518-2.906-2.518H12.775v-3.1h2.189A16.466,16.466,0,0,1,17.908-94.61Zm3,9.666c0,2.441.1,2.518,2.906,2.518h2.131v3.1h-2.17c-2.809,0-3.506-.213-4.63-1.337-1.1-1.085-1.337-1.84-1.337-4.242v-1.782h3.1Z"/></g></svg>