<svg xmlns="http://www.w3.org/2000/svg" width="12" height="17.126" viewBox="0 0 12 17.126"><g transform="translate(-15.08 100)"><path d="M20.187-99.021c-2.337,2.99-4.57,6.942-4.966,8.8a6.057,6.057,0,0,0,3.436,6.873,6.393,6.393,0,0,0,4.845,0,6.057,6.057,0,0,0,3.436-6.873A23.3,23.3,0,0,0,23.9-96.306,22.96,22.96,0,0,0,21.08-100,5.539,5.539,0,0,0,20.187-99.021Zm1.254.43a56.413,56.413,0,0,1,3.66,5.619c1.306,2.56,1.564,4.141,1.014,5.859a6.1,6.1,0,0,1-2.7,3.058,4.078,4.078,0,0,1-2.337.447,4.078,4.078,0,0,1-2.337-.447,6.039,6.039,0,0,1-2.732-3.11c-.515-1.718-.241-3.282,1.048-5.808a41.614,41.614,0,0,1,3.986-5.979C21.08-98.969,21.252-98.8,21.441-98.591Z"/><path d="M30.856-77.192a26.349,26.349,0,0,0-2.44,4.3,5.943,5.943,0,0,0-.086,4.107c.567,1.237,2.784,2.7,3.3,2.182.258-.258.069-.515-.481-.653a3.514,3.514,0,0,1-2.131-1.667c-.825-1.632-.172-4.021,2.01-7.3.859-1.306,1.014-1.77.584-1.77C31.509-78,31.182-77.639,30.856-77.192Z" transform="translate(-10.704 -18.22)"/></g></svg>